<svg xmlns="http://www.w3.org/2000/svg" viewBox="0 0 840 24" width="840" height="24">
  <svg viewBox="0 0 24 24" width="24" height="24">
    <path d="M1 9l2 2c4.97-4.97 13.03-4.97 18 0l2-2C16.93 2.93 7.08 2.93 1 9zm8 8l3 3 3-3c-.55-.553-1.216-.922-1.92-1.107-.704-.184-1.448-.184-2.153 0-.706.185-1.374.554-1.927 1.107m8-2l2-2C15.14 9.14 8.87 9.14 5 13l2 2c2.76-2.76 7.24-2.76 10 0" fill="#000000"/>
  </svg>
  <svg viewBox="0 0 24 24" width="24" height="24" x="24">
    <path d="M1 9l2 2c4.983-4.983 13.017-4.983 18 0l2-2C16.917 2.917 7.089 2.917 1 9zm7.125 7.125l-.875-.875 1.687 1.687c2.269-2.269 5.544-2.831 7.813-1.687-.601-.02-1.267.065-1.955.252-1.009-.716-2.214-1.022-3.399-.918-1.184.103-2.347.617-3.271 1.541m6.687-1.563l1.125-1.124c-2.171-2.172-5.698-2.172-7.874 0l1.125 1.124c1.552-1.552 4.072-1.552 5.624 0" fill="#000000"/>
  </svg>
  <svg viewBox="0 0 24 24" width="24" height="24" x="48">
    <path d="M1 9l2 2c4.997-4.997 13.003-4.997 18 0l2-2C16.903 2.903 7.098 2.903 1 9zm6.176 6.176l-1.824-1.824.264.264c3.645-3.645 9.387-3.733 13.032-.264-.656.559-1.323 1.135-1.993 1.727-1.339-1.293-3.046-1.932-4.749-1.916-1.704.017-3.404.688-4.73 2.013m5.264-1.088l.176-.176c-.34-.34-.892-.34-1.232 0l.176.176c.243-.243.637-.243.88 0" fill="#000000"/>
  </svg>
  <svg viewBox="0 0 24 24" width="24" height="24" x="72">
    <path d="M1 9l2 2c5-5 13-5 18 0l2-2C16.9 2.9 7.1 2.9 1 9zm6.001 6.001l-2-2 .001.001c3.899-3.899 10.098-3.9 13.997-.001-.667.666-1.333 1.333-2 1.999-1.4-1.399-3.2-2.099-4.999-2.099-1.8 0-3.6.7-4.999 2.1m5-1.001h.001c-.001-.001-.003-.001-.004 0h.003" fill="#000000"/>
  </svg>
  <svg viewBox="0 0 24 24" width="24" height="24" x="96">
    <path d="M1 9l2 2c5-5 13-5 18 0l2-2C16.9 2.9 7.1 2.9 1 9zm6 6l-2-2c3.9-3.9 10.1-3.9 14 0l-2 2c-1.4-1.4-3.2-2.1-5-2.1-1.8 0-3.6.7-5 2.1m5-1" fill="#000000"/>
  </svg>
  <svg viewBox="0 0 24 24" width="24" height="24" x="120">
    <path d="M1 9l2 2c5-5 13-5 18 0l2-2C16.9 2.9 7.1 2.9 1 9zm6 6l-2-2c3.9-3.9 10.1-3.9 14 0l-2 2c-1.4-1.4-3.2-2.1-5-2.1-1.8 0-3.6.7-5 2.1m5-1" fill="#000000"/>
  </svg>
  <svg viewBox="0 0 24 24" width="24" height="24" x="144">
    <path d="M1 9l2 2c5-5 13-5 18 0l2-2C16.9 2.9 7.1 2.9 1 9zm6 6l-2-2c3.9-3.9 10.1-3.9 14 0l-2 2c-1.4-1.4-3.2-2.1-5-2.1-1.8 0-3.6.7-5 2.1m5-1" fill="#000000"/>
  </svg>
  <svg viewBox="0 0 24 24" width="24" height="24" x="168">
    <path d="M1 9l2 2c5-5 13-5 18 0l2-2C16.9 2.9 7.1 2.9 1 9zm6 6l-2-2c3.9-3.9 10.1-3.9 14 0l-2 2c-1.4-1.4-3.2-2.1-5-2.1-1.8 0-3.6.7-5 2.1m5-1" fill="#000000"/>
  </svg>
  <svg viewBox="0 0 24 24" width="24" height="24" x="192">
    <path d="M1 9l2 2c5-5 13-5 18 0l2-2C16.9 2.9 7.1 2.9 1 9zm15.986 5.968c-1.357-1.357-3.103-2.036-4.849-2.036s-3.491.679-4.849 2.036l-1.94-1.939c3.783-3.783 9.796-3.783 13.578 0-.647.647-1.293 1.292-1.94 1.939M12 14" fill="#000000"/>
  </svg>
  <svg viewBox="0 0 24 24" width="24" height="24" x="216">
    <path d="M1 9l2 2c5-5 13-5 18 0l2-2C16.9 2.9 7.1 2.9 1 9zm15.696 5.29c-.454-.453-1.038-.68-1.621-.68-.584 0-1.168.227-1.622.68l-.648-.648c1.264-1.265 3.275-1.265 4.539 0l-.648.648M12 14" fill="#000000"/>
  </svg>
  <svg viewBox="0 0 24 24" width="24" height="24" x="240">
    <path d="M1 9l2 2c5-5 13-5 18 0l2-2C16.9 2.9 7.1 2.9 1 9zm15.567 4.989c-.053-.052-.12-.078-.187-.078-.068 0-.135.026-.188.078l-.075-.075c.146-.146.379-.146.525 0l-.075.075M12 14" fill="#000000"/>
  </svg>
  <svg viewBox="0 0 24 24" width="24" height="24" x="264">
    <path d="M1 9l2 2c5-5 13-5 18 0l2-2C16.9 2.9 7.1 2.9 1 9zm11 5" fill="#000000"/>
  </svg>
  <svg viewBox="0 0 24 24" width="24" height="24" x="288">
    <path d="M1 9l2 2c5-5 13-5 18 0l2-2C16.9 2.9 7.1 2.9 1 9zm11 5" fill="#000000"/>
  </svg>
  <svg viewBox="0 0 24 24" width="24" height="24" x="312">
    <path d="M1 9l2 2c5-5 13-5 18 0l2-2C16.9 2.9 7.1 2.9 1 9zm11 5" fill="#000000"/>
  </svg>
  <svg viewBox="0 0 24 24" width="24" height="24" x="336">
    <path d="M1 9l2 2c5-5 13-5 18 0l2-2C16.9 2.9 7.1 2.9 1 9zm11 5" fill="#000000"/>
  </svg>
  <svg viewBox="0 0 24 24" width="24" height="24" x="360">
    <path d="M1 9l2 2c5-5 13-5 18 0l2-2C16.9 2.9 7.1 2.9 1 9zm11 5" fill="#000000"/>
  </svg>
  <svg viewBox="0 0 24 24" width="24" height="24" x="384">
    <path d="M1 9l2 2c5-5 13-5 18 0l2-2C16.9 2.9 7.1 2.9 1 9zm14.198 5.496c.305-.304.788-.304 1.075 0-.179.179-.359.358-.538.537-.059-.06-.119-.119-.179-.179-.059-.06-.119-.119-.179-.179-.059-.06-.119-.119-.179-.179M12 14" fill="#000000"/>
  </svg>
  <svg viewBox="0 0 24 24" width="24" height="24" x="408">
    <path d="M1 9l2 2c5-5 13-5 18 0l2-2C16.9 2.9 7.1 2.9 1 9zm9.271 7.487c1.414-1.414 3.659-1.414 4.99 0-.832.831-1.663 1.663-2.495 2.495-.277-.278-.555-.555-.832-.832-.277-.277-.554-.554-.831-.832-.278-.277-.555-.554-.832-.831M12 14" fill="#000000"/>
  </svg>
  <svg viewBox="0 0 24 24" width="24" height="24" x="432">
    <path d="M1 9l2 2c5-5 13-5 18 0l2-2C16.9 2.9 7.1 2.9 1 9zm8.067 7.973c1.685-1.685 4.361-1.685 5.947 0-.991.991-1.982 1.982-2.974 2.973l-.991-.991c-.33-.33-.66-.661-.991-.991l-.991-.991M12 14" fill="#000000"/>
  </svg>
  <svg viewBox="0 0 24 24" width="24" height="24" x="456">
    <path d="M1 9l2 2c5-5 13-5 18 0l2-2C16.9 2.9 7.1 2.9 1 9zm8 8c1.7-1.7 4.4-1.7 6 0l-3 3-1-1-1-1-1-1m3-3" fill="#000000"/>
  </svg>
  <svg viewBox="0 0 24 24" width="24" height="24" x="480">
    <path d="M1 9l2 2c5-5 13-5 18 0l2-2C16.9 2.9 7.1 2.9 1 9zm8 8c1.7-1.7 4.4-1.7 6 0l-3 3-1-1-1-1-1-1m3-3" fill="#000000"/>
  </svg>
  <svg viewBox="0 0 24 24" width="24" height="24" x="504">
    <path d="M1 9l2 2c5-5 13-5 18 0l2-2C16.9 2.9 7.1 2.9 1 9zm8 8c1.7-1.7 4.4-1.7 6 0l-3 3-1-1-1-1-1-1m3-3" fill="#000000"/>
  </svg>
  <svg viewBox="0 0 24 24" width="24" height="24" x="528">
    <path d="M1 9l2 2c5-5 13-5 18 0l2-2C16.9 2.9 7.1 2.9 1 9zm8 8c1.7-1.7 4.4-1.7 6 0l-3 3-1-1-1-1-1-1m3-3" fill="#000000"/>
  </svg>
  <svg viewBox="0 0 24 24" width="24" height="24" x="552">
    <path d="M9 17c1.672-1.649 4.321-1.637 5.895.035-.965.988-1.93 1.977-2.895 2.965-.302-.348-.605-.698-.907-1.046-.344-.345-.695-.682-1.046-1.007-.35-.325-.702-.641-1.047-.947m-5.954-5.954C5.504 8.62 8.694 7.415 11.884 7.43c3.239-.065 6.516 1.156 9.023 3.663l2-2C16.903 3.089 7.272 3.067 1.255 9.025c-.058 0-.117.023-.162.068l1.953 1.953M12 14" fill="#000000"/>
  </svg>
  <svg viewBox="0 0 24 24" width="24" height="24" x="576">
    <path d="M9 17c.914-.26 2.174.068 3.054.982-.018.673-.036 1.345-.054 2.018.54-.77 1.079-1.54 1.619-2.309-.639-.672-1.458-1.065-2.285-1.18-.827-.115-1.663.048-2.334.489m-4.691-4.691c1.3-.427 2.859-.422 4.418.015 2.955-1.833 6.958-1.402 9.654 1.295l2-2c-3.383-3.384-8.42-4.022-12.18-1.915-1.653 0-3.306.638-4.582 1.915l.69.69M12 14" fill="#000000"/>
  </svg>
  <svg viewBox="0 0 24 24" width="24" height="24" x="600">
    <path d="M9 17c.55.408 1.142.887 1.688 1.437.437.521.875 1.042 1.312 1.563.944-.972 1.889-1.944 2.833-2.917-.78-.828-1.824-1.249-2.881-1.263-1.056-.014-2.124.379-2.952 1.18m-4.083-4.083c.743.534 1.517 1.121 2.292 1.76 2.818-2.684 7.17-2.631 9.958.156l2-2c-2.123-2.123-4.952-3.057-7.626-2.803-2.42 0-4.839.934-6.708 2.803l.084.084M12 14" fill="#000000"/>
  </svg>
  <svg viewBox="0 0 24 24" width="24" height="24" x="624">
    <path d="M9 17l1.5 1.5L12 20l3-3c-.8-.85-1.875-1.275-2.963-1.275C10.95 15.725 9.85 16.15 9 17m-4-4l2 2c2.8-2.8 7.2-2.8 10 0l2-2c-1.95-1.95-4.475-2.925-7-2.925-2.525 0-5.05.975-7 2.925m7 1" fill="#000000"/>
  </svg>
  <svg viewBox="0 0 24 24" width="24" height="24" x="648">
    <path d="M9 17l1.5 1.5L12 20l3-3c-.8-.85-1.875-1.275-2.963-1.275C10.95 15.725 9.85 16.15 9 17m-4-4l2 2c2.8-2.8 7.2-2.8 10 0l2-2c-1.95-1.95-4.475-2.925-7-2.925-2.525 0-5.05.975-7 2.925m7 1" fill="#000000"/>
  </svg>
  <svg viewBox="0 0 24 24" width="24" height="24" x="672">
    <path d="M9 17l1.5 1.5L12 20l3-3c-.8-.85-1.875-1.275-2.963-1.275C10.95 15.725 9.85 16.15 9 17m-4-4l2 2c2.8-2.8 7.2-2.8 10 0l2-2c-1.95-1.95-4.475-2.925-7-2.925-2.525 0-5.05.975-7 2.925m7 1" fill="#000000"/>
  </svg>
  <svg viewBox="0 0 24 24" width="24" height="24" x="696">
    <path d="M9 17l1.5 1.5L12 20l3-3c-.8-.85-1.875-1.275-2.963-1.275C10.95 15.725 9.85 16.15 9 17m-4-4l2 2c2.8-2.8 7.2-2.8 10 0l2-2c-1.95-1.95-4.475-2.925-7-2.925-2.525 0-5.05.975-7 2.925m7 1" fill="#000000"/>
  </svg>
  <svg viewBox="0 0 24 24" width="24" height="24" x="720">
    <path d="M9 17l1.5 1.5L12 20l3-3c-.8-.85-1.875-1.275-2.963-1.275C10.95 15.725 9.85 16.15 9 17m-4-4l2 2c2.8-2.8 7.2-2.8 10 0l2-2c-1.95-1.95-4.475-2.925-7-2.925-2.525 0-5.05.975-7 2.925m7 1" fill="#000000"/>
  </svg>
  <svg viewBox="0 0 24 24" width="24" height="24" x="744">
    <path d="M4.991 12.991l.004.004c.672.66 1.344 1.322 2.017 1.987 2.801-2.793 7.198-2.791 9.997.009l2-2c-1.959-1.96-4.501-2.933-7.035-2.919-2.519 0-5.038.973-6.983 2.919M9 17l1.5 1.5L12 20l3-3c-.8-.85-1.875-1.275-2.963-1.275C10.95 15.725 9.85 16.15 9 17m2.984-3.002l.004.004c.007-.006.017-.006.024 0l.004-.004c-.009-.009-.023-.009-.032 0" fill="#000000"/>
  </svg>
  <svg viewBox="0 0 24 24" width="24" height="24" x="768">
    <path d="M2.919 10.919l1.04 1.04c1.613-.973 3.628-1.3 5.642-.98 3.039-1.343 6.844-.696 9.48 1.94l2-2c-4.093-4.094-10.43-4.562-14.804-1.403-1.212 0-2.423.467-3.358 1.403M9 17l1.5 1.5L12 20l3-3c-.813-.84-1.893-1.259-2.98-1.259S9.84 16.16 9 17m-.642-3.52l1.041 1.04c1.436-1.436 3.766-1.436 5.202 0l1.041-1.04c-2.008-2.009-5.271-2.009-7.284 0" fill="#000000"/>
  </svg>
  <svg viewBox="0 0 24 24" width="24" height="24" x="792">
    <path d="M1.279 9.279l1.86 1.86c2.359-2.265 5.436-3.374 8.512-3.328 3.226-.195 6.563.961 9.07 3.468l2-2C16.938 3.496 7.599 3.428 1.767 9.075c-.176 0-.352.068-.488.204M9 17l1.5 1.5L12 20l3-3c-.823-.831-1.908-1.247-2.994-1.247-1.086 0-2.175.416-3.006 1.247m-3.512-3.93l1.861 1.86c2.567-2.567 6.735-2.567 9.302 0l1.861-1.86c-3.591-3.591-9.424-3.591-13.024 0" fill="#000000"/>
  </svg>
  <svg viewBox="0 0 24 24" width="24" height="24" x="816">
    <path d="M1 9l2 2c2.485-2.485 5.742-3.728 9-3.728S18.515 8.515 21 11l2-2C16.93 2.93 7.08 2.93 1 9m8 8l1.5 1.5L12 20l3-3c-.825-.83-1.91-1.245-2.996-1.245S9.83 16.17 9 17m-4-4l2 2c2.76-2.76 7.24-2.76 10 0l2-2C15.14 9.14 8.87 9.14 5 13" fill="#000000"/>
  </svg>
</svg>
